<svg viewBox="0 0 47 29" xmlns="http://www.w3.org/2000/svg">
 <g id="Page-1" fill="none" fill-rule="evenodd">
  <g id="redflag">
   <path d="m9-9v47l14-7 15 7v-47h-29" id="Shape" fill="#fd0f2a" transform="matrix(0 1-1 0 38-9)"/>
   <path d="m26.5 5c-5.2 0-9.5 4.3-9.5 9.5 0 5.2 4.3 9.5 9.5 9.5 5.2 0 9.5-4.3 9.5-9.5 0-5.2-4.3-9.5-9.5-9.5m0 17c-4.1 0-7.5-3.4-7.5-7.5 0-4.1 3.4-7.5 7.5-7.5 4.1 0 7.5 3.4 7.5 7.5 0 4.1-3.4 7.5-7.5 7.5m.5-13h-2v6.3l3.6 3.7 1.4-1.5-3-3.1v-5.4" id="Shape" fill="#fff"/>
  </g>
 </g>
</svg>